<?xml version="1.0" standalone="no"?>
<!DOCTYPE svg PUBLIC "-//W3C//DTD SVG 20010904//EN"
 "http://www.w3.org/TR/2001/REC-SVG-20010904/DTD/svg10.dtd">
<svg version="1.0" xmlns="http://www.w3.org/2000/svg"
 width="548.000000pt" height="548.000000pt" viewBox="0 0 548.000000 548.000000"
 preserveAspectRatio="xMidYMid meet">
<metadata>
Created by potrace 1.14, written by Peter Selinger 2001-2017
</metadata>
<g transform="translate(0.000000,548.000000) scale(0.100000,-0.100000)"
fill="#000000" stroke="none">
<path d="M1130 2655 l0 -2085 151 0 c97 0 148 4 144 10 -3 5 -2 10 3 10 13 0
10 33 -3 42 -6 5 -5 8 4 8 10 0 11 3 2 14 -9 11 -9 15 1 18 10 4 10 8 -1 21
-7 10 -10 17 -5 17 5 0 8 26 6 57 -1 32 -3 63 -3 68 0 6 1 40 2 76 1 36 -1 71
-6 79 -5 9 -4 11 3 6 16 -9 15 7 0 22 -7 7 -8 12 -2 12 5 0 8 26 6 57 -1 32
-3 63 -3 68 0 6 1 40 2 76 1 36 -1 71 -6 79 -5 9 -4 11 3 6 16 -9 15 7 0 22
-7 7 -8 12 -2 12 5 0 8 26 6 57 -1 32 -3 63 -3 68 0 6 0 39 1 75 1 36 -1 75
-4 88 -3 13 -1 20 5 17 5 -4 9 -2 9 4 0 5 -6 12 -12 14 -9 4 -10 6 -1 6 8 1 9
10 3 31 -5 19 -5 28 1 25 5 -4 9 -2 9 4 0 5 -6 12 -12 14 -7 3 -8 6 -3 6 11 1
12 119 1 146 -4 10 -2 14 5 9 8 -4 7 0 0 15 -7 11 -8 21 -4 21 10 0 8 64 -2
81 -6 8 -4 10 4 4 10 -6 11 -3 2 14 -7 11 -8 21 -2 21 5 0 6 14 1 35 -5 20 -4
33 1 29 5 -3 9 -1 9 5 0 5 -6 12 -12 14 -9 4 -10 6 -1 6 8 1 9 10 3 31 -5 19
-5 28 1 25 5 -4 9 -1 9 4 0 6 -6 11 -12 11 -8 0 -9 3 -3 8 12 8 18 65 6 57 -5
-2 -5 13 -1 34 4 22 3 47 -3 56 -7 13 -6 16 3 10 9 -6 9 -3 1 14 -7 11 -8 21
-4 21 10 0 8 64 -2 81 -6 8 -4 10 4 4 10 -6 11 -3 2 14 -7 11 -8 21 -2 21 5 0
6 14 1 35 -5 20 -4 33 1 29 5 -3 9 -1 9 5 0 5 -6 12 -12 14 -9 4 -10 6 -1 6 8
1 9 10 3 31 -5 19 -5 28 1 25 5 -4 9 -2 9 4 0 5 -6 12 -12 14 -7 3 -8 6 -3 6
11 1 12 119 1 146 -4 10 -2 14 5 9 8 -4 7 0 0 15 -7 11 -8 21 -4 21 10 0 8 64
-2 81 -6 8 -4 10 4 4 10 -6 11 -3 2 14 -7 11 -8 21 -2 21 5 0 6 14 1 35 -5 20
-4 33 1 29 5 -3 9 -1 9 5 0 5 -6 12 -12 14 -9 4 -10 6 -1 6 8 1 9 10 3 31 -5
19 -5 28 1 25 5 -4 9 -1 9 4 0 6 -6 11 -12 11 -8 0 -9 3 -3 8 12 8 18 65 6 57
-5 -2 -5 13 -1 34 4 22 3 47 -3 56 -7 13 -6 16 3 10 9 -6 9 -3 1 14 -7 11 -8
21 -4 21 10 0 8 64 -2 81 -6 8 -4 10 4 4 10 -6 11 -3 2 14 -7 11 -8 21 -2 21
5 0 6 14 1 35 -5 20 -4 33 1 29 5 -3 9 -1 9 5 0 5 -6 12 -12 14 -9 4 -10 6 -1
6 8 1 9 10 3 31 -5 19 -5 28 1 25 5 -4 9 -2 9 4 0 5 -6 12 -12 14 -7 3 -8 6
-3 6 11 1 12 119 1 146 -4 10 -2 14 5 9 8 -4 7 0 0 15 -7 11 -8 21 -4 21 10 0
8 64 -2 81 -6 8 -4 10 4 4 10 -6 11 -3 2 14 -7 11 -8 21 -2 21 5 0 6 14 1 35
-5 20 -4 33 1 29 5 -3 9 -1 9 5 0 5 -6 12 -12 14 -9 4 -10 6 -1 6 8 1 9 10 3
31 -5 19 -5 28 1 25 5 -4 9 -1 9 4 0 6 -6 11 -12 11 -8 0 -9 3 -3 8 12 8 13
42 2 60 -5 6 -5 12 0 12 4 0 7 26 5 57 -1 32 -3 63 -3 68 0 6 1 40 2 76 1 36
-1 71 -6 79 -5 9 -4 11 3 6 16 -9 15 7 0 22 -7 7 -8 12 -3 12 6 0 9 26 7 57
-3 68 -3 97 0 115 2 10 -31 14 -149 16 l-153 3 0 -2086z"/>
<path d="M1669 4733 c-7 -45 -5 -72 4 -66 6 4 7 1 2 -7 -11 -18 -13 -122 -2
-137 4 -6 3 -14 -3 -18 -8 -5 -7 -11 2 -23 7 -9 8 -13 2 -10 -12 8 -11 -123 1
-143 5 -8 4 -10 -3 -5 -13 8 -12 -20 1 -41 4 -6 3 -15 -3 -18 -8 -5 -7 -12 2
-23 7 -9 8 -13 2 -9 -7 4 -11 -5 -11 -23 0 -17 5 -27 10 -23 6 4 7 1 2 -7 -11
-18 -13 -122 -2 -137 4 -6 3 -14 -3 -18 -8 -5 -7 -11 2 -23 7 -9 8 -13 3 -10
-11 7 -13 -192 -1 -210 3 -6 0 -12 -6 -15 -10 -3 -9 -8 2 -22 9 -11 10 -16 3
-11 -8 4 -13 1 -13 -9 0 -10 5 -13 13 -9 9 6 9 5 0 -7 -10 -12 -10 -18 0 -29
6 -7 7 -10 2 -7 -12 6 -13 -132 -2 -150 4 -7 4 -14 -1 -17 -10 -6 -7 -59 3
-77 5 -7 4 -10 -3 -5 -12 7 -11 -41 1 -61 4 -6 4 -14 -1 -17 -10 -6 -7 -59 3
-77 5 -7 4 -10 -2 -6 -11 7 -11 -82 0 -100 4 -7 3 -15 -3 -18 -8 -5 -7 -12 2
-23 7 -9 8 -13 2 -10 -12 8 -11 -123 1 -143 5 -8 4 -10 -3 -5 -13 8 -12 -20 1
-41 4 -6 3 -15 -3 -18 -8 -5 -7 -12 2 -23 7 -9 8 -13 2 -10 -12 8 -11 -123 1
-143 5 -8 4 -10 -3 -5 -13 8 -12 -20 1 -41 4 -6 3 -15 -3 -18 -8 -5 -7 -12 2
-23 7 -9 8 -13 2 -9 -13 7 -13 -50 -1 -70 4 -6 4 -14 -1 -17 -10 -6 -7 -59 3
-77 5 -7 4 -10 -3 -5 -12 7 -11 -41 1 -61 4 -6 4 -14 -1 -17 -10 -6 -7 -59 3
-77 5 -7 4 -10 -2 -6 -6 4 -10 -4 -10 -18 0 -14 4 -22 10 -18 6 4 7 1 2 -7
-11 -18 -13 -122 -2 -137 4 -6 3 -14 -3 -18 -8 -5 -7 -11 2 -23 7 -9 8 -13 3
-10 -11 7 -13 -192 -1 -210 3 -6 0 -12 -6 -15 -10 -3 -9 -8 2 -22 9 -11 10
-16 3 -11 -8 4 -13 1 -13 -9 0 -10 5 -13 13 -9 9 6 9 5 0 -7 -10 -12 -10 -18
0 -29 6 -7 7 -10 2 -7 -11 6 -13 -172 -2 -190 4 -7 3 -15 -3 -18 -8 -5 -7 -12
2 -23 7 -9 8 -13 2 -10 -12 8 -11 -123 1 -143 5 -8 4 -10 -3 -5 -13 8 -12 -20
1 -41 4 -6 3 -15 -3 -18 -8 -5 -7 -12 2 -23 7 -9 8 -13 2 -10 -12 8 -11 -123
1 -143 5 -8 4 -10 -3 -5 -13 8 -12 -20 1 -41 4 -6 3 -15 -3 -18 -8 -5 -7 -12
2 -23 7 -9 8 -13 2 -9 -12 7 -12 -91 -1 -110 4 -7 3 -15 -3 -18 -8 -5 -7 -12
2 -23 7 -9 8 -13 2 -10 -12 8 -11 -123 1 -143 5 -7 4 -10 -3 -5 -8 5 -9 -7 -5
-40 4 -38 3 -45 -8 -38 -12 7 -12 5 -1 -9 8 -9 11 -20 8 -26 -3 -5 -3 -16 0
-25 6 -15 123 -16 1314 -16 1225 1 1309 2 1322 18 12 16 11 16 -7 2 -19 -14
-19 -14 -6 2 7 10 19 18 25 18 6 0 17 9 24 20 7 11 19 20 27 20 17 0 37 34 27
46 -4 5 0 3 9 -4 14 -11 16 -9 13 14 -1 14 0 23 3 21 2 -3 13 2 22 11 13 13
15 21 7 31 -8 11 -8 13 2 7 7 -4 12 -2 12 4 0 6 5 8 13 4 7 -5 6 0 -3 11 -9
11 -10 16 -2 11 7 -4 12 -2 12 4 0 6 4 9 8 6 10 -6 9 25 -2 42 -4 6 -3 12 3
12 12 0 9 73 -4 82 -6 5 -6 8 2 8 13 0 11 49 -3 71 -4 8 -3 9 5 5 12 -8 9 33
-5 55 -4 8 -3 9 5 5 12 -8 9 33 -5 55 -4 7 -3 9 3 6 12 -8 10 94 -2 114 -5 8
-4 10 4 5 12 -8 9 33 -5 55 -4 8 -3 9 4 5 13 -8 12 20 -1 42 -5 7 -4 12 3 12
11 0 7 40 -6 61 -4 8 -3 9 4 5 13 -8 12 20 -1 42 -5 7 -4 12 2 12 7 0 9 14 5
35 -4 24 -1 35 7 35 7 0 4 7 -7 16 -10 8 -14 13 -7 9 9 -4 11 8 9 42 -2 27 2
54 8 62 8 11 8 13 0 8 -7 -4 -15 0 -18 9 -4 10 -2 13 6 8 7 -5 9 -2 5 8 -3 9
-1 20 5 26 6 6 6 12 -3 17 -8 6 -10 4 -4 -5 6 -9 4 -11 -5 -5 -10 6 -9 11 5
22 13 8 14 13 5 13 -7 0 -11 3 -8 6 4 3 2 19 -2 35 -6 19 -5 27 1 23 7 -4 9 6
5 27 -3 19 0 40 7 48 8 10 8 13 1 8 -7 -4 -15 0 -18 9 -4 10 -2 13 6 8 7 -5 9
-2 5 8 -3 9 -1 20 5 26 6 6 6 12 -3 17 -8 6 -10 4 -4 -5 6 -9 4 -11 -5 -5 -10
6 -9 11 5 22 13 8 14 13 5 13 -7 0 -11 3 -8 6 4 3 2 19 -2 35 -6 19 -5 27 1
23 7 -4 9 6 5 27 -3 19 0 40 7 48 10 12 9 13 -2 6 -11 -6 -13 -4 -8 7 3 9 1
20 -5 26 -6 6 -6 12 3 17 8 6 10 4 4 -5 -6 -9 -4 -11 4 -6 9 6 8 13 -6 29 -10
11 -12 17 -5 13 11 -6 12 -1 8 25 -3 19 0 40 7 48 8 10 8 13 1 8 -7 -4 -15 0
-18 9 -4 10 -2 13 6 8 7 -5 9 -2 5 8 -3 9 -1 20 5 26 6 6 6 12 -3 17 -8 6 -10
4 -4 -5 6 -9 4 -11 -5 -5 -10 6 -9 11 5 22 13 8 14 13 5 13 -7 0 -11 3 -8 6 4
3 2 19 -2 35 -6 19 -5 27 1 23 7 -4 9 6 5 27 -3 19 0 40 7 48 8 10 8 13 1 8
-7 -4 -15 0 -18 9 -4 10 -2 13 6 8 7 -5 9 -2 5 8 -3 9 -1 20 5 26 6 6 6 12 -3
17 -8 6 -10 4 -4 -5 6 -9 4 -11 -5 -5 -10 6 -9 11 5 22 13 8 14 13 5 13 -7 0
-11 3 -8 6 4 3 2 19 -2 35 -6 19 -5 27 1 23 7 -4 9 6 5 27 -3 19 0 40 7 48 9
12 9 13 0 7 -8 -4 -13 -1 -13 8 0 9 5 16 12 16 6 0 3 7 -8 16 -10 8 -14 13 -7
9 9 -4 11 8 9 42 -2 27 2 54 8 62 8 11 8 13 -1 7 -8 -4 -13 -2 -13 8 0 8 6 17
13 19 9 4 8 6 -2 6 -11 1 -11 4 0 18 10 11 10 14 2 9 -17 -9 -17 6 0 23 9 11
9 13 0 7 -8 -5 -13 -1 -13 9 0 10 5 13 12 9 7 -5 8 -3 2 7 -12 19 -14 39 -4
39 13 0 5 31 -11 41 -11 7 -10 9 6 9 17 0 17 2 5 10 -13 9 -13 10 0 10 11 0
12 2 2 8 -13 9 -12 38 2 61 6 10 5 12 -2 7 -16 -10 -15 7 1 23 9 11 9 13 0 7
-8 -5 -13 -1 -13 9 0 10 5 13 12 9 7 -5 8 -3 2 7 -12 19 -14 39 -4 39 13 0 5
31 -11 41 -11 7 -10 9 6 9 17 0 17 2 5 10 -13 9 -13 10 0 10 11 0 12 2 2 8
-13 9 -12 38 2 61 6 9 5 12 -1 8 -6 -4 -14 0 -17 9 -3 8 -2 13 3 10 5 -3 11 4
14 15 4 16 2 19 -11 14 -16 -6 -16 -5 0 11 16 16 16 19 0 43 -13 18 -13 23 -3
16 11 -6 13 -4 8 7 -3 9 -1 20 5 26 6 6 6 12 -3 17 -8 6 -10 4 -4 -5 6 -9 4
-11 -5 -5 -10 6 -9 11 5 22 13 8 14 13 5 13 -7 0 -11 3 -8 6 4 3 2 19 -2 35
-6 19 -5 27 1 23 7 -4 9 6 5 27 -3 19 0 40 7 48 8 10 8 13 1 8 -7 -4 -15 0
-18 9 -4 10 -2 13 6 8 7 -5 9 -2 5 8 -3 9 -1 20 5 26 6 6 6 12 -3 17 -8 6 -10
4 -4 -5 6 -9 4 -11 -5 -5 -10 6 -9 11 5 22 13 8 14 13 5 13 -7 0 -11 3 -8 6 4
3 2 19 -2 35 -6 19 -5 27 1 23 7 -4 9 6 5 27 -3 19 0 40 7 48 8 10 8 13 1 8
-7 -4 -15 0 -18 9 -3 8 -2 12 4 9 6 -3 10 -3 11 2 0 4 2 16 4 26 2 10 -1 14
-7 10 -7 -4 -9 1 -6 14 3 11 1 28 -5 38 -7 13 -6 16 2 11 8 -5 9 4 5 31 -3 21
-8 41 -10 45 -2 4 1 10 7 14 8 5 9 3 4 -6 -6 -9 -4 -11 4 -5 9 5 10 10 2 18
-15 15 -14 57 2 57 8 0 8 3 1 8 -14 9 -27 45 -14 37 13 -8 13 7 0 40 -7 17 -7
24 0 20 15 -9 12 8 -7 34 -9 14 -11 21 -5 17 20 -12 13 5 -10 26 -13 11 -17
17 -10 13 14 -7 17 11 2 20 -6 4 -8 10 -5 15 3 4 -3 7 -12 6 -10 0 -18 6 -18
14 0 9 -8 14 -19 12 -14 -3 -17 1 -12 13 3 9 2 13 -4 10 -6 -3 -10 -1 -10 4 0
6 -5 11 -11 11 -5 0 -7 -5 -3 -12 4 -7 3 -8 -4 -4 -7 4 -12 15 -12 24 0 15 -2
15 -10 2 -8 -13 -10 -12 -10 3 0 10 -4 16 -9 13 -4 -3 -17 1 -27 9 -16 12
-205 14 -1321 15 -717 0 -1303 -3 -1304 -7z m2611 -7 c0 -2 -7 -7 -16 -10 -8
-3 -12 -2 -9 4 6 10 25 14 25 6z m-1162 -1095 c15 -1 15 -3 2 -11 -13 -8 -12
-10 5 -11 11 -1 24 -1 28 0 5 1 6 -3 2 -9 -3 -6 -11 -7 -17 -4 -6 4 -9 1 -6
-7 3 -8 10 -14 16 -14 5 0 14 -4 19 -9 5 -5 3 -6 -4 -2 -8 4 -13 1 -13 -9 0
-9 5 -13 10 -10 6 3 10 1 10 -4 0 -6 -4 -11 -10 -11 -5 0 -10 -5 -10 -11 0 -5
5 -7 10 -4 9 6 14 -10 13 -42 -1 -7 3 -13 8 -13 6 0 5 -8 -1 -19 -13 -26 -13
-40 1 -21 9 12 10 11 6 -7 -3 -14 0 -23 6 -23 7 0 5 -5 -3 -10 -12 -8 -12 -10
5 -10 17 0 17 -2 5 -10 -13 -9 -13 -10 0 -10 13 0 13 -1 0 -10 -8 -5 -10 -10
-5 -10 6 0 16 -10 24 -22 13 -22 13 -22 -5 -6 -18 16 -19 15 -19 -12 -1 -16 3
-26 9 -23 5 4 7 -3 4 -15 -4 -13 -1 -22 5 -22 6 0 2 -7 -9 -15 -12 -10 -14
-13 -3 -10 12 5 15 -1 13 -30 -2 -21 1 -33 6 -30 6 4 10 -1 10 -10 0 -10 -5
-13 -12 -9 -9 5 -9 3 1 -9 7 -9 18 -14 23 -11 6 4 5 -3 -1 -15 -7 -12 -8 -21
-4 -20 20 3 34 -2 28 -11 -5 -8 21 -15 46 -12 4 1 4 -9 1 -21 -5 -20 -4 -21
13 -7 17 14 17 13 10 -10 -7 -22 -6 -23 9 -11 9 8 19 11 23 7 3 -3 0 -6 -7 -6
-8 0 -2 -12 14 -29 18 -18 34 -27 44 -24 11 5 14 2 9 -9 -3 -10 3 -24 15 -35
12 -10 18 -12 14 -5 -4 6 -2 12 3 12 10 0 15 -14 12 -33 -1 -5 3 -6 9 -2 6 3
8 10 5 15 -3 5 0 12 6 16 7 4 9 3 5 -4 -3 -6 -2 -13 4 -17 5 -3 10 -11 10 -16
0 -6 -4 -7 -10 -4 -5 3 -10 1 -10 -4 0 -14 6 -14 33 1 20 10 21 10 8 -6 -12
-14 -12 -16 3 -10 9 3 16 1 16 -5 0 -6 5 -11 11 -11 5 0 7 5 3 12 -4 6 -3 8 4
5 11 -7 11 -25 0 -42 -4 -6 2 -12 13 -12 12 -1 17 3 13 9 -4 7 -2 8 5 4 6 -4
8 -12 5 -18 -5 -8 -1 -9 11 -4 15 5 16 4 5 -9 -7 -9 -10 -18 -6 -22 3 -3 6 -1
6 5 0 7 5 12 11 12 6 0 9 -6 6 -14 -4 -10 0 -12 14 -9 13 4 19 1 17 -8 -2 -8
3 -13 10 -12 6 2 12 -1 12 -6 0 -5 -6 -12 -12 -15 -7 -3 -3 -3 10 0 17 4 22 1
22 -15 0 -24 10 -27 29 -8 10 10 12 9 9 -3 -2 -8 3 -14 10 -13 6 2 12 -6 12
-17 0 -11 5 -20 11 -20 5 0 8 -4 5 -8 -2 -4 5 -9 17 -9 12 -1 23 -7 25 -13 2
-5 9 -7 15 -3 8 4 7 1 -1 -9 -10 -13 -10 -17 3 -22 9 -3 13 -2 10 4 -3 5 1 7
9 4 9 -3 12 -12 9 -21 -5 -12 -3 -14 8 -8 12 7 12 6 1 -7 -9 -11 -10 -18 -2
-23 5 -3 10 -11 10 -16 0 -6 -4 -7 -10 -4 -6 4 -7 -1 -3 -11 4 -11 3 -15 -5
-10 -7 4 -9 -3 -6 -21 l4 -28 -14 25 c-8 14 -13 27 -11 31 2 3 -2 6 -10 6 -10
0 -12 -4 -5 -12 11 -13 3 -25 -14 -25 -8 0 -8 2 0 8 7 5 3 15 -14 32 -13 14
-22 20 -18 13 3 -6 2 -14 -4 -18 -5 -3 -10 1 -10 11 0 12 -6 15 -21 11 -17 -5
-18 -3 -8 9 7 8 8 14 3 13 -27 -5 -56 3 -74 21 -11 11 -20 16 -20 10 0 -5 -4
-10 -10 -10 -5 0 -7 7 -4 15 5 11 2 13 -12 8 -13 -5 -15 -3 -9 7 6 10 4 12 -8
7 -12 -4 -17 -1 -17 11 0 15 -2 15 -10 2 -9 -13 -10 -13 -11 0 -1 8 -1 19 0
23 1 5 -3 6 -9 2 -6 -3 -8 -12 -4 -18 3 -7 -1 -4 -9 6 -16 19 -32 24 -21 5 4
-7 3 -8 -4 -4 -7 4 -12 15 -12 24 0 15 -2 15 -10 2 -8 -13 -10 -12 -10 3 0 10
-4 15 -10 12 -5 -3 -10 -2 -10 4 0 6 -6 8 -14 5 -9 -3 -19 4 -27 17 -11 22
-12 22 -26 3 -15 -18 -15 -18 -9 3 6 18 3 21 -19 19 -16 -2 -25 2 -25 11 0 9
5 11 13 7 8 -5 8 -3 -2 9 -13 17 -36 14 -26 -4 3 -5 -1 -6 -9 -3 -9 3 -16 14
-16 23 0 14 -2 14 -10 1 -8 -12 -10 -12 -10 -1 0 10 -3 11 -13 2 -14 -11 -27
-5 -27 13 0 6 5 4 10 -4 5 -8 10 -10 10 -5 0 6 -5 17 -10 25 -5 8 -10 10 -10
4 0 -7 -10 -14 -22 -18 -19 -5 -20 -8 -8 -16 13 -8 13 -11 1 -22 -12 -11 -13
-10 -6 2 7 12 6 13 -6 2 -12 -11 -12 -14 1 -22 12 -8 12 -10 -5 -11 -19 -1
-19 -2 -1 -6 14 -4 16 -7 6 -13 -16 -10 -24 -50 -11 -50 6 0 8 9 6 20 -2 11 0
18 5 15 12 -7 6 -35 -11 -46 -12 -7 -12 -9 1 -9 13 0 13 -1 0 -10 -10 -6 -11
-10 -2 -10 6 0 12 -5 12 -11 0 -6 -6 -9 -12 -6 -10 3 -13 -10 -12 -49 1 -34
-2 -51 -9 -47 -6 4 -7 1 -1 -8 11 -18 11 -49 1 -71 -5 -11 -4 -18 3 -18 7 0 8
-6 0 -19 -13 -25 -13 -34 0 -26 6 3 7 -1 4 -9 -3 -9 -11 -16 -18 -17 -6 0 -2
-4 9 -9 16 -7 16 -9 4 -9 -24 -1 -32 -30 -14 -47 19 -19 19 -25 0 -18 -11 5
-13 2 -8 -12 5 -13 3 -15 -8 -9 -8 5 -7 1 4 -12 19 -22 23 -38 6 -28 -6 4 -5
-2 2 -13 9 -15 17 -18 25 -11 9 8 11 5 7 -10 -4 -16 -1 -21 16 -21 13 0 21 -6
21 -17 0 -15 2 -16 10 -3 9 13 10 13 10 0 0 -9 -5 -21 -12 -28 -9 -9 -9 -12 0
-12 7 0 12 5 12 10 0 6 5 10 10 10 6 0 10 -9 10 -20 0 -11 4 -20 8 -20 5 0 17
-7 28 -16 10 -8 13 -13 7 -9 -7 3 -13 1 -13 -5 0 -8 10 -10 28 -6 21 5 24 4
12 -4 -11 -8 -12 -13 -3 -16 7 -3 9 -12 6 -21 -4 -11 -2 -14 5 -9 8 4 10 2 6
-8 -3 -9 -12 -12 -21 -9 -10 4 -14 2 -9 -5 3 -6 1 -14 -5 -18 -7 -4 -9 -3 -5
4 3 6 2 13 -4 17 -5 3 -10 0 -10 -7 0 -9 -3 -9 -8 -2 -9 13 -45 27 -37 15 3
-5 0 -13 -6 -17 -8 -4 -9 -3 -5 4 4 7 2 12 -4 12 -6 0 -8 6 -4 13 5 9 4 9 -6
0 -10 -9 -18 -9 -34 -1 -12 6 -22 11 -23 10 -10 -7 -23 0 -18 9 4 6 1 10 -6 8
-28 -3 -40 1 -34 14 4 6 -1 3 -9 -7 -9 -11 -16 -14 -16 -8 0 19 -20 14 -21 -5
-1 -12 -4 -10 -9 7 -6 18 -8 20 -9 7 -1 -10 -5 -15 -11 -12 -5 3 -10 0 -10 -7
0 -11 -2 -10 -9 0 -7 11 -9 10 -14 -3 -5 -13 -11 -14 -27 -5 -11 6 -20 7 -19
3 3 -20 -2 -26 -13 -12 -7 8 -12 12 -11 10 1 -2 -2 -13 -8 -23 -8 -15 -14 -17
-22 -9 -6 6 -18 11 -27 11 -12 0 -12 -2 -2 -9 11 -7 11 -9 -2 -14 -8 -3 -18
-1 -22 5 -4 7 -3 8 4 4 8 -5 10 -1 5 10 -5 14 -8 13 -19 -7 l-13 -24 -1 22 c0
15 -5 21 -14 17 -17 -7 -31 12 -16 21 8 5 7 12 -2 23 -7 10 -8 14 -4 10 5 -4
15 -3 23 3 11 10 11 15 1 28 -12 14 -11 14 5 2 16 -13 16 -15 1 -32 -11 -12
-13 -19 -5 -19 7 0 9 -5 5 -12 -4 -7 -3 -8 5 -4 6 4 9 12 5 17 -3 6 3 20 14
32 21 22 22 25 22 52 0 12 5 13 28 5 24 -9 25 -8 10 4 -19 14 -25 31 -7 20 6
-3 24 6 40 22 29 27 40 52 17 38 -7 -4 -8 -3 -4 5 4 6 11 9 16 6 5 -3 11 -1
15 5 4 6 11 7 17 4 7 -4 8 -2 4 4 -4 6 -14 8 -23 5 -11 -4 -14 -3 -9 5 4 7 13
12 21 12 8 0 16 4 20 9 3 6 -5 8 -17 6 -19 -4 -21 -2 -8 8 17 14 24 37 11 37
-5 0 -12 7 -15 16 -6 14 -4 15 9 4 14 -12 15 -11 4 13 -7 15 -16 24 -20 21 -5
-3 -6 2 -3 10 3 9 10 13 15 10 5 -3 6 2 3 10 -3 9 -11 16 -16 16 -7 0 -7 4 0
13 7 8 7 18 2 27 -5 8 -4 22 2 33 7 14 7 17 -1 13 -15 -10 -14 7 1 22 9 9 9
12 -1 12 -10 0 -11 3 -2 14 9 11 9 16 0 22 -8 5 -9 3 -4 -6 5 -9 4 -11 -3 -6
-9 5 -7 15 6 34 9 14 12 23 6 19 -7 -4 -18 1 -25 10 -10 12 -10 14 -1 9 7 -4
12 -1 12 9 0 9 -4 14 -9 11 -5 -4 -8 2 -6 11 1 10 -3 24 -9 32 -9 12 -8 12 11
2 19 -10 22 -9 17 4 -4 8 -10 15 -14 15 -4 0 -11 7 -14 16 -5 13 -3 14 6 6 10
-8 13 -4 14 14 1 14 -4 24 -11 24 -8 0 -17 5 -21 12 -4 6 -3 8 3 5 6 -4 13 2
16 13 3 11 1 18 -3 15 -5 -3 -11 -1 -15 5 -8 13 -25 13 -25 -1 0 -5 4 -8 9 -4
5 3 12 1 16 -4 3 -6 -6 -8 -21 -5 -17 3 -34 -2 -48 -13 -19 -16 -19 -16 -7 0
20 25 -2 21 -32 -7 -19 -18 -28 -21 -38 -12 -6 6 -10 7 -7 1 2 -5 -9 -23 -25
-38 -17 -16 -27 -22 -24 -13 4 10 0 14 -13 13 -15 -1 -16 -4 -8 -14 8 -11 7
-12 -7 -7 -13 5 -16 4 -10 -5 6 -10 3 -11 -15 -1 -15 8 -20 8 -16 1 4 -6 2
-19 -4 -28 -11 -17 -11 -17 -6 0 4 11 0 17 -10 17 -9 0 -14 -6 -11 -13 3 -7
-4 -19 -15 -26 -17 -10 -22 -10 -29 0 -7 12 -10 11 -21 0 -10 -10 -10 -12 0
-7 6 4 12 3 12 -2 0 -6 -7 -12 -15 -16 -8 -3 -15 -1 -15 4 0 6 -5 10 -11 10
-5 0 -7 -4 -4 -10 5 -8 -14 -14 -36 -12 -4 1 -6 -6 -5 -15 0 -9 -6 -18 -14
-20 -13 -4 -13 -3 0 6 12 8 11 10 -8 8 -12 0 -22 -4 -22 -7 0 -3 -10 -16 -21
-30 -11 -14 -18 -19 -14 -12 4 8 -1 11 -16 9 -13 -2 -25 -10 -27 -18 -3 -11
-1 -11 7 1 13 19 14 0 1 -20 -5 -8 -10 -10 -10 -4 0 16 -28 13 -35 -4 -4 -11
-8 -12 -20 -2 -8 7 -24 10 -35 7 -11 -3 -20 0 -21 6 0 7 -2 20 -4 30 -2 9 1
15 6 11 5 -3 9 0 9 6 0 6 5 8 12 4 6 -4 8 -3 4 4 -3 6 2 16 11 22 15 9 14 10
-7 6 -14 -3 -19 -3 -12 0 6 3 10 9 7 14 -3 4 4 6 14 3 11 -3 28 0 38 7 16 9
15 10 -7 4 -22 -6 -23 -5 -11 10 8 9 20 15 27 12 8 -3 13 -2 13 2 -3 18 2 32
11 32 5 0 7 -8 4 -17 -5 -14 -4 -15 4 -4 6 8 8 20 5 28 -4 9 0 11 11 7 11 -4
16 -1 16 10 0 9 6 15 13 13 7 -1 12 8 11 22 -1 22 0 23 13 6 7 -11 13 -13 13
-6 0 7 5 9 13 5 9 -6 9 -4 -1 8 -9 11 -10 18 -2 23 5 3 13 -1 17 -10 5 -16 7
-16 15 -1 5 9 15 13 21 10 7 -4 9 -4 5 1 -10 10 11 37 23 30 4 -3 6 6 3 19 -3
21 -1 24 16 21 11 -2 20 0 20 6 0 5 6 8 13 6 6 -1 11 4 9 12 -2 9 3 11 14 7
14 -5 15 -4 5 8 -9 11 -8 15 4 20 8 3 15 1 15 -4 0 -6 5 -10 10 -10 7 0 7 7 0
20 -6 11 -7 20 -3 19 20 -3 34 2 28 10 -3 5 0 13 6 17 8 4 9 3 5 -4 -4 -7 -2
-12 3 -12 6 0 11 6 11 14 0 17 27 29 43 19 8 -4 7 -1 -1 9 -15 18 2 37 30 33
11 -2 15 2 11 11 -3 9 5 18 26 25 17 6 31 17 31 24 0 8 5 17 12 21 7 5 8 3 3
-6 -5 -8 -3 -11 5 -8 7 2 14 12 16 22 1 10 6 21 10 24 4 4 4 -1 1 -10 -3 -10
-3 -20 2 -22 4 -3 8 1 9 9 1 8 3 22 4 30 1 11 5 12 15 3 11 -9 12 -7 7 7 -5
11 -4 16 3 12 5 -3 10 0 10 8 0 8 -4 12 -8 9 -4 -2 -6 5 -4 17 3 13 10 26 17
31 8 4 8 8 2 8 -6 0 -11 7 -11 15 0 8 4 12 8 9 4 -2 10 0 14 6 3 5 1 10 -4 10
-6 0 -11 5 -11 11 0 5 6 7 13 3 7 -5 6 0 -3 11 -13 17 -13 18 0 13 13 -5 15 1
12 30 -4 27 -2 33 9 26 12 -7 12 -5 0 9 -7 9 -10 17 -6 17 4 0 1 8 -6 17 -8 9
-9 14 -3 10 7 -4 14 0 18 8 3 8 0 15 -6 15 -7 0 -6 5 2 15 10 12 10 15 -1 16
-9 0 -10 2 -2 5 6 3 9 16 7 30 -3 17 -1 23 7 19 8 -6 8 -2 0 13 -16 30 -14 36
7 21 9 -7 14 -9 9 -4 -4 4 -1 16 7 24 9 10 12 22 7 30 -6 9 -11 10 -15 2 -4
-6 -2 -11 4 -11 6 0 8 -4 5 -10 -10 -15 -23 -12 -21 6 3 20 52 65 62 56 5 -4
3 0 -3 8 -11 15 -3 17 65 11z m284 -656 c2 3 5 -2 5 -10 0 -19 0 -19 -23 7
-12 14 -13 18 -3 10 9 -6 18 -10 21 -7z m58 -51 c0 -8 -19 -13 -24 -6 -3 5 1
9 9 9 8 0 15 -2 15 -3z m-941 -170 c-12 -13 -25 -22 -28 -19 -2 3 5 12 17 21
12 8 19 20 16 26 -5 7 -2 8 5 3 9 -5 7 -13 -10 -31z m1208 -66 c-3 -8 -6 -5
-6 6 -1 11 2 17 5 13 3 -3 4 -12 1 -19z m72 -44 c4 3 8 -1 8 -9 0 -11 -4 -12
-14 -4 -7 6 -13 17 -12 23 0 7 2 6 6 -2 2 -6 8 -10 12 -8z m105 -146 c-2 -16
1 -26 6 -23 6 4 7 -1 3 -11 -4 -12 -3 -15 6 -10 10 6 10 4 0 -12 -7 -11 -18
-18 -26 -15 -7 3 -10 9 -7 14 3 5 0 9 -6 9 -6 0 -4 11 6 25 12 19 14 29 5 38
-8 10 -7 14 3 14 10 0 13 -9 10 -29z m-1599 -50 c2 -2 -5 -10 -17 -17 -11 -7
-17 -8 -13 -2 3 6 1 11 -4 11 -6 0 -11 -5 -11 -11 0 -5 -5 -7 -10 -4 -6 4 -8
10 -5 15 3 4 -1 11 -7 14 -7 3 4 4 25 2 21 -2 40 -5 42 -8z m885 -172 c0 -2
-7 -7 -16 -10 -8 -3 -12 -2 -9 4 6 10 25 14 25 6z m-256 -167 c-9 -11 -20 -17
-23 -13 -3 3 2 10 12 15 9 6 14 15 11 21 -5 7 -2 8 5 4 9 -6 8 -13 -5 -27z
m366 -69 c0 -5 -2 -10 -4 -10 -3 0 -8 5 -11 10 -3 6 -1 10 4 10 6 0 11 -4 11
-10z"/>
<path d="M2945 3160 c-3 -5 -1 -10 4 -10 6 0 11 5 11 10 0 6 -2 10 -4 10 -3 0
-8 -4 -11 -10z"/>
<path d="M2755 2960 c-3 -5 -1 -10 4 -10 6 0 11 5 11 10 0 6 -2 10 -4 10 -3 0
-8 -4 -11 -10z"/>
<path d="M2600 2609 c0 -5 5 -7 10 -4 6 3 10 8 10 11 0 2 -4 4 -10 4 -5 0 -10
-5 -10 -11z"/>
<path d="M3680 2550 c8 -5 20 -10 25 -10 6 0 3 5 -5 10 -8 5 -19 10 -25 10 -5
0 -3 -5 5 -10z"/>
<path d="M2265 2501 c-6 -11 13 -26 22 -17 4 3 0 6 -8 6 -11 0 -11 2 1 10 9 6
10 10 3 10 -6 0 -14 -4 -18 -9z"/>
<path d="M2316 2477 c3 -10 9 -15 12 -12 3 3 0 11 -7 18 -10 9 -11 8 -5 -6z"/>
<path d="M3190 1956 c0 -2 7 -7 16 -10 8 -3 12 -2 9 4 -6 10 -25 14 -25 6z"/>
<path d="M4345 629 c-4 -6 -5 -12 -2 -15 2 -3 7 2 10 11 7 17 1 20 -8 4z"/>
</g>
</svg>
